<svg width="27" height="27" viewBox="0 0 27 27" fill="none" xmlns="http://www.w3.org/2000/svg">
<path d="M13.5 0C10.83 0 8.21987 0.791761 5.99981 2.27516C3.77974 3.75856 2.04942 5.86697 1.02763 8.33377C0.00584936 10.8006 -0.261496 13.515 0.259405 16.1337C0.780305 18.7525 2.06606 21.1579 3.95406 23.0459C5.84207 24.934 8.24754 26.2197 10.8663 26.7406C13.485 27.2615 16.1994 26.9942 18.6662 25.9724C21.133 24.9506 23.2414 23.2203 24.7248 21.0002C26.2082 18.7801 27 16.17 27 13.5C26.996 9.9208 25.5724 6.48932 23.0416 3.95844C20.5107 1.42756 17.0792 0.00397028 13.5 0ZM15 23.8913V17H17.5C17.8978 17 18.2794 16.842 18.5607 16.5607C18.842 16.2794 19 15.8978 19 15.5C19 15.1022 18.842 14.7206 18.5607 14.4393C18.2794 14.158 17.8978 14 17.5 14H15V11.5C15 11.1022 15.158 10.7206 15.4393 10.4393C15.7207 10.158 16.1022 10 16.5 10H18.5C18.8978 10 19.2794 9.84196 19.5607 9.56066C19.842 9.27936 20 8.89782 20 8.5C20 8.10218 19.842 7.72064 19.5607 7.43934C19.2794 7.15804 18.8978 7 18.5 7H16.5C15.3065 7 14.1619 7.47411 13.318 8.31802C12.4741 9.16193 12 10.3065 12 11.5V14H9.50001C9.10218 14 8.72065 14.158 8.43935 14.4393C8.15804 14.7206 8.00001 15.1022 8.00001 15.5C8.00001 15.8978 8.15804 16.2794 8.43935 16.5607C8.72065 16.842 9.10218 17 9.50001 17H12V23.8913C9.37262 23.512 6.9864 22.1517 5.32156 20.084C3.65673 18.0163 2.83686 15.3948 3.02696 12.747C3.21707 10.0992 4.40303 7.62171 6.34617 5.81307C8.28931 4.00444 10.8454 2.99895 13.5 2.99895C16.1546 2.99895 18.7107 4.00444 20.6538 5.81307C22.597 7.62171 23.7829 10.0992 23.973 12.747C24.1632 15.3948 23.3433 18.0163 21.6784 20.084C20.0136 22.1517 17.6274 23.512 15 23.8913Z" fill="#FB6E3B"/>
</svg>
