<svg width="25" height="25" viewBox="0 0 25 25" fill="none" xmlns="http://www.w3.org/2000/svg">
<path d="M12.5 6.94444C11.4012 6.94444 10.3271 7.27027 9.4135 7.88072C8.49989 8.49118 7.78782 9.35884 7.36734 10.374C6.94685 11.3891 6.83683 12.5062 7.05119 13.5838C7.26556 14.6615 7.79467 15.6514 8.57163 16.4284C9.34859 17.2053 10.3385 17.7344 11.4162 17.9488C12.4938 18.1632 13.6109 18.0532 14.626 17.6327C15.6412 17.2122 16.5088 16.5001 17.1193 15.5865C17.7297 14.6729 18.0556 13.5988 18.0556 12.5C18.054 11.027 17.4682 9.61486 16.4267 8.57332C15.3851 7.53178 13.973 6.94598 12.5 6.94444ZM12.5 15.2778C11.9506 15.2778 11.4136 15.1149 10.9567 14.8096C10.4999 14.5044 10.1439 14.0706 9.93367 13.563C9.72342 13.0554 9.66842 12.4969 9.7756 11.9581C9.88278 11.4192 10.1473 10.9243 10.5358 10.5358C10.9243 10.1473 11.4192 9.88278 11.9581 9.7756C12.4969 9.66842 13.0554 9.72342 13.563 9.93367C14.0706 10.1439 14.5044 10.4999 14.8096 10.9567C15.1149 11.4136 15.2778 11.9506 15.2778 12.5C15.2778 13.2367 14.9851 13.9433 14.4642 14.4642C13.9433 14.9851 13.2367 15.2778 12.5 15.2778ZM18.0556 0H6.94444C5.10332 0.00214423 3.33822 0.734478 2.03635 2.03635C0.734478 3.33822 0.00214423 5.10332 0 6.94444V18.0556C0.00214423 19.8967 0.734478 21.6618 2.03635 22.9636C3.33822 24.2655 5.10332 24.9979 6.94444 25H18.0556C19.8967 24.9979 21.6618 24.2655 22.9636 22.9636C24.2655 21.6618 24.9979 19.8967 25 18.0556V6.94444C24.9979 5.10332 24.2655 3.33822 22.9636 2.03635C21.6618 0.734478 19.8967 0.00214423 18.0556 0ZM22.2222 18.0556C22.2222 19.1606 21.7832 20.2204 21.0018 21.0018C20.2204 21.7832 19.1606 22.2222 18.0556 22.2222H6.94444C5.83938 22.2222 4.77957 21.7832 3.99817 21.0018C3.21676 20.2204 2.77778 19.1606 2.77778 18.0556V6.94444C2.77778 5.83938 3.21676 4.77957 3.99817 3.99817C4.77957 3.21676 5.83938 2.77778 6.94444 2.77778H18.0556C19.1606 2.77778 20.2204 3.21676 21.0018 3.99817C21.7832 4.77957 22.2222 5.83938 22.2222 6.94444V18.0556ZM20.3704 6.48148C20.3704 6.84774 20.2618 7.20578 20.0583 7.51031C19.8548 7.81485 19.5656 8.05221 19.2272 8.19237C18.8888 8.33253 18.5165 8.3692 18.1572 8.29775C17.798 8.2263 17.468 8.04992 17.2091 7.79094C16.9501 7.53195 16.7737 7.20198 16.7022 6.84276C16.6308 6.48354 16.6675 6.11119 16.8076 5.77281C16.9478 5.43443 17.1851 5.14521 17.4897 4.94172C17.7942 4.73824 18.1523 4.62963 18.5185 4.62963C19.0097 4.62963 19.4807 4.82474 19.828 5.17202C20.1753 5.51931 20.3704 5.99034 20.3704 6.48148Z" fill="#FB6E3B"/>
</svg>
