<svg width="31" height="31" viewBox="0 0 31 31" fill="none" xmlns="http://www.w3.org/2000/svg">
<g clip-path="url(#clip0_121_451)">
<path d="M15.5 31C24.0604 31 31 24.0604 31 15.5C31 6.93959 24.0604 0 15.5 0C6.93959 0 0 6.93959 0 15.5C0 24.0604 6.93959 31 15.5 31Z" fill="#F36E3F"/>
<path d="M8.33685 9.03965L9.79465 17.751C10.4277 22.2148 11.7882 23.7739 11.7882 23.7739C12.7486 25.2975 12.6001 23.7169 12.6001 23.7169L11.1011 12.2442C11.1011 10.5466 12.0998 10.5879 12.0998 10.5879C13.4141 10.2989 13.7837 11.8471 13.7837 11.8471L16.6137 24.2851C16.7071 25.6858 17.4984 25.1275 17.4984 25.1275C18.6181 25.2454 18.1689 24.117 18.1689 24.117L17.2114 11.6869C16.947 9.71399 18.3075 9.73267 18.3075 9.73267C19.8744 9.43776 20.0375 11.1089 20.0375 11.1089L21.9239 22.7083C21.9239 22.7083 22.5737 22.5176 22.6661 20.2724C22.6661 20.2724 22.6661 17.6311 22.2326 15.4331L21.1434 7.14441C21.1434 7.14441 14.5976 3.01285 8.33685 9.03965Z" fill="white"/>
</g>
<defs>
<clipPath id="clip0_121_451">
<rect width="31" height="31" fill="white"/>
</clipPath>
</defs>
</svg>
